Format : AVI
Format/Info : Audio Video Interleave
File size : 721 MiB
Duration : 1h 27mn
Overall bit rate : 1 153 Kbps
Writing library : VirtualDub build 30091/release

Video
ID : 0
Format : MPEG-4 Visual
Format profile : Advanced Simple@L5
Format settings, BVOP : 2
Format settings, QPel : No
Format settings, GMC : No warppoints
Format settings, Matrix : Default (H.263)
Muxing mode : Packed bitstream
Codec ID : XVID
Codec ID/Hint : XviD
Duration : 1h 27mn
Bit rate : 1 016 Kbps
Width : 522 pixels
Height : 282 pixels
Display aspect ratio : 1.85:1
Frame rate : 23.976 fps
Color space : YUV
Chroma subsampling : 4:2:0
Bit depth : 8 bits
Scan type : Progressive
Compression mode : Lossy
Bits/(Pixel*Frame) : 0.288
Stream size : 635 MiB (88%)
Writing library : XviD 64

Audio
ID : 1
Format : MPEG Audio
Format version : Version 1
Format profile : Layer 3
Codec ID : 55
Codec ID/Hint : MP3
Duration : 1h 27mn
Bit rate mode : Constant
Bit rate : 128 Kbps
Channel(s) : 2 channels
Sampling rate : 44.1 KHz
Compression mode : Lossy
Stream size : 80.0 MiB (11%)
Alignment : Split accross interleaves
Interleave, duration : 42 ms (1.00 video frame)
Interleave, preload duration : 500 ms

 
http://www.imdb.com/title/tt2247692/


Ratings: 5.1/10 from 5,097 users Metascore: 40/100
Reviews: 131 user | 13 critic | 11 from Metacritic.com

A documentary that examines the question, "If Barack Obama wins a second term, where will we be in 2016?"

Directors:
Dinesh D'Souza, John Sullivan
Writers:
Dinesh D'Souza, John Sullivan, and 1 more credit ┬╗
Stars:
Dinesh D'Souza, Dr. Alice Dewey and Willy Kauai | See full cast and crew

Source Used

h264 NoGRP ...........Thanks


Source was small res nothing i can do ............someone might want this ...........who knows

Enjoy


Greets

INSPiRAL,LEGION,iLLUSiON,DiLLON,THORN,DQ1,26K,ETRG/SeeN/CM8 .......and thats about it

SCREENS:


SEED AND HAVE FUN!!!